<svg xmlns="http://www.w3.org/2000/svg" viewBox="0 0 1305.4 1305.59"><defs><style>.cls-1{fill:#ff2f2f;}</style></defs><title>Asset 3</title><g id="Layer_2" data-name="Layer 2"><g id="Layer_1-2" data-name="Layer 1"><path class="cls-1" d="M415.57,832.18v.09H889.83a57.1,57.1,0,0,1,0,114.19H620.5q-1.62,0-3.21.09H59.06a59.07,59.07,0,0,0-59,59v1.59a59.09,59.09,0,0,0,59,59H694.27c1.12,0,2.24,0,3.35-.11H889.83c97.21,0,176.81-79.58,176.81-176.8S987,712.37,889.83,712.37H415.57c-163,0-296.42-133.4-296.42-296.42s133.4-296.42,296.42-296.42H1008a59.15,59.15,0,0,0,59.06-59V59A59.09,59.09,0,0,0,1008,0H415.57C193.59,0,10.68,176.24,0,395.7v40.78C10.68,655.94,193.59,832.18,415.57,832.18Z"/><path class="cls-1" d="M70.78,1185.88H59.06a59.07,59.07,0,0,0-59,59v1.69a59.08,59.08,0,0,0,59,59H70.78a59.07,59.07,0,0,0,59-59v-1.69A59.07,59.07,0,0,0,70.78,1185.88Z"/><path class="cls-1" d="M1246.44.18h-11.72a59.07,59.07,0,0,0-59,59v1.59a59.07,59.07,0,0,0,59,59h11.72a59.07,59.07,0,0,0,59-59V59.16A59.08,59.08,0,0,0,1246.44.18Z"/><path class="cls-1" d="M1246.44,239.42H620.26c-1.09,0-2.16,0-3.23.1H415.57c-97.21,0-176.8,79.59-176.8,176.8s79.59,176.81,176.8,176.81H889.84c163,0,296.42,133.4,296.42,296.42S1052.85,1186,889.84,1186H297.36a59.08,59.08,0,0,0-59,59v1.69a59.08,59.08,0,0,0,59,59H889.84c222,0,404.88-176.24,415.56-395.7V869.11c-10.68-219.45-193.58-395.7-415.56-395.7v-.09H415.57a57.09,57.09,0,0,1,0-114.18H684.9c1.09,0,2.17,0,3.24-.1h558.3a59.07,59.07,0,0,0,59-59v-1.69A59.07,59.07,0,0,0,1246.44,239.42Z"/></g></g></svg>